<svg version="1.2" xmlns="http://www.w3.org/2000/svg" viewBox="0 0 2000 2000" width="2000" height="2000"><defs><linearGradient id="P" gradientUnits="userSpaceOnUse"/><linearGradient id="g1" x2="1" href="#P" gradientTransform="matrix(0,-1989.32,1989.32,0,1000,1994.66)"><stop stop-color="#35ff97"/><stop offset="1" stop-color="#f0f"/></linearGradient><filter x="-50%" y="-50%" width="200%" height="200%" id="f1" ><feDropShadow dx="19.056408771672007" dy="31.715190125978157" stdDeviation="36.25" flood-color="#002727" flood-opacity=".6"/></filter><filter x="-50%" y="-50%" width="200%" height="200%" id="f2" ><feDropShadow dx="19.056408771672007" dy="31.715190125978157" stdDeviation="36.25" flood-color="#002727" flood-opacity=".6"/></filter><filter x="-50%" y="-50%" width="200%" height="200%" id="f3" ><feDropShadow dx="19.056408771672007" dy="31.715190125978157" stdDeviation="36.25" flood-color="#002727" flood-opacity=".6"/></filter></defs><style>.a{fill:url(#g1);stroke:#fff;stroke-linejoin:round;stroke-width:10}.b{filter:url(#f1);fill:#0ff;stroke:#fff;stroke-miterlimit:100;stroke-width:10}.c{filter:url(#f2);fill:#00f;stroke:#fff;stroke-miterlimit:100;stroke-width:10}.d{filter:url(#f3);fill:#f0f;stroke:#fff;stroke-miterlimit:100;stroke-width:10}</style><path fill-rule="evenodd" class="a" d="m224.3 5.3h1551.4c120.9 0 219 98.1 219 219v1551.4c0 120.9-98.1 219-219 219h-1551.4c-120.9 0-219-98.1-219-219v-1551.4c0-120.9 98.1-219 219-219z"/><path fill-rule="evenodd" class="b" d="m1796.6 1226.1l-822.8 542.1-769.8-615 347-922.2 984.3 45z"/><path fill-rule="evenodd" class="c" d="m1525.2 1231.3l-532.7 237.2-390.3-433.3 291.6-505.1 570.4 121.3z"/><path fill-rule="evenodd" class="d" d="m1410.3 1199l-265.5 75.6-154-229.2 170.4-217.3 259.3 95z"/></svg>